<svg xmlns="http://www.w3.org/2000/svg" width="157" height="157" viewBox="0 0 157 157"><defs><style>.a{fill:#fff;stroke:#9f9f9f;stroke-width:7px;}.b{fill:#9f9f9f;}.c{stroke:none;}.d{fill:none;}</style></defs><g transform="translate(-881 -311)"><g class="a" transform="translate(881 311)"><circle class="c" cx="78.5" cy="78.5" r="78.5"/><circle class="d" cx="78.5" cy="78.5" r="75"/></g><g transform="translate(868.928 335)"><g transform="translate(36.073)"><path class="b" d="M164.495,69.509h.855c7.827-.134,14.158-2.885,18.833-8.148,10.285-11.594,8.575-31.469,8.388-33.365-.668-14.238-7.4-21.05-12.956-24.229A29.7,29.7,0,0,0,165.243,0h-.454a29.747,29.747,0,0,0-14.372,3.66C144.807,6.839,137.968,13.651,137.3,28c-.187,1.9-1.9,21.772,8.388,33.365C150.336,66.624,156.668,69.375,164.495,69.509ZM144.433,28.664c0-.08.027-.16.027-.214.882-19.154,14.479-21.211,20.3-21.211h.321c7.213.16,19.474,3.1,20.3,21.211a.521.521,0,0,0,.027.214c.027.187,1.9,18.352-6.6,27.916-3.366,3.793-7.854,5.663-13.758,5.717h-.267c-5.877-.053-10.392-1.923-13.731-5.717C142.59,47.069,144.406,28.824,144.433,28.664Z" transform="translate(-110.099)"/><path class="b" d="M145.793,292.464v-.08c0-.214-.027-.427-.027-.668-.16-5.289-.508-17.658-12.1-21.611-.08-.027-.187-.053-.267-.08a77.081,77.081,0,0,1-22.172-10.1,3.606,3.606,0,0,0-4.141,5.9,83.2,83.2,0,0,0,24.39,11.14c6.224,2.217,6.919,8.869,7.106,14.96a5.364,5.364,0,0,0,.027.668c.027,2.4-1.387,6.117-1.814,8.254C132.465,303.31,116.755,315.2,90.95,315.2c-25.7,0-43.3-13.011-47.657-15.469-.427-2.137-.08-4.759-.027-7.163,0-.214.027-.427.027-.668.187-6.091.882-12.742,7.106-14.96a83.977,83.977,0,0,0,24.39-11.14,3.605,3.605,0,1,0-4.141-5.9A76.235,76.235,0,0,1,48.475,270c-.107.027-.187.053-.267.08-11.594,3.98-11.941,16.349-12.1,21.611a5.366,5.366,0,0,1-.027.668v.08c-.027,1.389,1.336,4.835,2.752,8.415a14.009,14.009,0,0,0,2.495,3.686c.8.534,17.487,17.957,49.624,17.957s46.295-17.45,47.1-17.957c.614-.4,7.72-4.8,7.72-4.8S145.82,293.853,145.793,292.464Z" transform="translate(-36.073 -189.991)"/></g></g></g></svg>