<svg id="Difficulty" xmlns="http://www.w3.org/2000/svg" width="36.191" height="18.406" viewBox="0 0 36.191 18.406">
  <g id="noun_Difficulty_Gauge_1143717" data-name="noun_Difficulty Gauge_1143717">
    <path id="Path_11741" data-name="Path 11741" d="M38.122,32.475a.513.513,0,0,0,.472.33,12.364,12.364,0,0,1,1.321-.047,14.168,14.168,0,0,1,2.029.142.5.5,0,0,0,.566-.472V29.172a.473.473,0,0,0-.472-.472,16.76,16.76,0,0,0-4.388.755.472.472,0,0,0-.283.613Z" transform="translate(-25.052 -28.653)" fill="#d52d00"/>
    <path id="Path_11742" data-name="Path 11742" d="M49.473,33.083A16.623,16.623,0,0,1,52.4,34.121a.469.469,0,0,0,.661-.283l1.274-3.869a.491.491,0,0,0-.283-.613,17.1,17.1,0,0,0-4.388-.755.446.446,0,0,0-.472.472v3.539A.393.393,0,0,0,49.473,33.083Z" transform="translate(-31.307 -28.6)" fill="#d52d00"/>
    <path id="Path_11743" data-name="Path 11743" d="M74.152,46.208l-3.964,2.878a.5.5,0,0,0-.142.613,14.45,14.45,0,0,1,1.038,2.312.439.439,0,0,0,.566.283l4.624-1.51a.472.472,0,0,0,.283-.613A20.712,20.712,0,0,0,74.766,46.3.44.44,0,0,0,74.152,46.208Z" transform="translate(-42.302 -37.856)" fill="#d52d00"/>
    <path id="Path_11744" data-name="Path 11744" d="M28.418,35.361a14.5,14.5,0,0,1,3.4-1.18.472.472,0,0,0,.377-.613l-.708-2.218a.491.491,0,0,0-.613-.283A17.317,17.317,0,0,0,27,33.237a.5.5,0,0,0-.094.661l.944,1.321A.45.45,0,0,0,28.418,35.361Z" transform="translate(-19.5 -29.887)" fill="#d52d00"/>
    <path id="Path_11745" data-name="Path 11745" d="M59.3,31.42l-1.321,4.058A.448.448,0,0,0,58.17,36a13.23,13.23,0,0,1,2.312,1.7.516.516,0,0,0,.708-.047l2.69-3.728a.507.507,0,0,0-.094-.661,17.317,17.317,0,0,0-3.869-2.171A.514.514,0,0,0,59.3,31.42Z" transform="translate(-35.946 -29.91)" fill="#d52d00"/>
    <path id="Path_11746" data-name="Path 11746" d="M65.039,41.852a13.869,13.869,0,0,1,1.651,2.076.464.464,0,0,0,.661.142l3.916-2.831a.5.5,0,0,0,.094-.661,18.918,18.918,0,0,0-2.925-3.209.482.482,0,0,0-.708.094l-2.784,3.822A.515.515,0,0,0,65.039,41.852Z" transform="translate(-39.607 -33.17)" fill="#d52d00"/>
    <path id="Path_11747" data-name="Path 11747" d="M20.023,41.563a13.048,13.048,0,0,1,2.925-2.406.472.472,0,0,0,.142-.661l-.849-1.132a.473.473,0,0,0-.708-.094,18.918,18.918,0,0,0-2.925,3.209.507.507,0,0,0,.094.661l.661.472A.452.452,0,0,0,20.023,41.563Z" transform="translate(-15.116 -33.117)" fill="#d52d00"/>
    <path id="Path_11748" data-name="Path 11748" d="M13.62,50.788l.236.094a.439.439,0,0,0,.566-.283,13.949,13.949,0,0,1,1.982-3.35.428.428,0,0,0-.094-.661l-.566-.377a.464.464,0,0,0-.661.142,16.063,16.063,0,0,0-1.793,3.869A.485.485,0,0,0,13.62,50.788Z" transform="translate(-12.346 -37.859)" fill="#d52d00"/>
    <path id="Path_11749" data-name="Path 11749" d="M70.59,58.8a15.345,15.345,0,0,1,.283,2.123.465.465,0,0,0,.472.425h6.983a.473.473,0,0,0,.472-.472,22.863,22.863,0,0,0-.519-4.483.447.447,0,0,0-.613-.33L70.92,58.238A.513.513,0,0,0,70.59,58.8Z" transform="translate(-42.609 -43.092)" fill="#d52d00"/>
    <path id="Path_11750" data-name="Path 11750" d="M12.149,61.669a14.735,14.735,0,0,1,.8-4.341.491.491,0,0,0-.283-.613l-.142-.047a.479.479,0,0,0-.613.33,19.213,19.213,0,0,0-.613,4.671Z" transform="translate(-11.3 -43.408)" fill="#d52d00"/>
    <path id="Path_11751" data-name="Path 11751" d="M53.719,63.261,41.97,62.6h-.236a1.188,1.188,0,1,0,.283,2.359l11.7-1.7C53.766,63.355,53.766,63.261,53.719,63.261ZM41.262,64.2a.648.648,0,1,1,.9.189A.681.681,0,0,1,41.262,64.2Z" transform="translate(-26.824 -46.557)"/>
  </g>
</svg>
