<svg id="Difficulty" xmlns="http://www.w3.org/2000/svg" width="36.858" height="18.86" viewBox="0 0 36.858 18.86">
  <g id="noun_Difficulty_Gauge_1143712" data-name="noun_Difficulty Gauge_1143712">
    <path id="Path_11752" data-name="Path 11752" d="M19.54,64.7l11.728,2.3a.359.359,0,0,1,.239.048,1.221,1.221,0,0,0,.048-2.441H19.54C19.492,64.6,19.444,64.7,19.54,64.7Zm12.589.814a.674.674,0,1,1-.909-.287A.635.635,0,0,1,32.129,65.509Z" transform="translate(-15.375 -48.182)"/>
    <path id="Path_11753" data-name="Path 11753" d="M39.833,34.229a.521.521,0,0,0,.479.335,12.541,12.541,0,0,1,1.34-.048,14.374,14.374,0,0,1,2.058.144.505.505,0,0,0,.574-.479v-3.3a.48.48,0,0,0-.479-.479,17,17,0,0,0-4.452.766.479.479,0,0,0-.287.622Z" transform="translate(-25.569 -30.352)" fill="#d2d2d2"/>
    <path id="Path_11754" data-name="Path 11754" d="M51.155,34.847A16.862,16.862,0,0,1,54.122,35.9a.476.476,0,0,0,.67-.287l1.292-3.925a.5.5,0,0,0-.287-.622,17.352,17.352,0,0,0-4.452-.766.452.452,0,0,0-.479.479v3.59A.342.342,0,0,0,51.155,34.847Z" transform="translate(-31.72 -30.3)" fill="#d2d2d2"/>
    <path id="Path_11755" data-name="Path 11755" d="M75.812,47.909l-4.021,2.92a.507.507,0,0,0-.144.622A14.658,14.658,0,0,1,72.7,53.8a.446.446,0,0,0,.574.287l4.691-1.532a.479.479,0,0,0,.287-.622A21.011,21.011,0,0,0,76.435,48C76.387,47.813,76.052,47.765,75.812,47.909Z" transform="translate(-42.545 -39.437)" fill="#d2d2d2"/>
    <path id="Path_11756" data-name="Path 11756" d="M30.141,37.123a14.713,14.713,0,0,1,3.446-1.2.479.479,0,0,0,.383-.622l-.718-2.25a.5.5,0,0,0-.622-.287,17.568,17.568,0,0,0-3.925,2.2.506.506,0,0,0-.1.67l.957,1.34A.429.429,0,0,0,30.141,37.123Z" transform="translate(-20.089 -31.571)" fill="#d2d2d2"/>
    <path id="Path_11757" data-name="Path 11757" d="M60.921,33.125l-1.34,4.117a.454.454,0,0,0,.191.527,13.422,13.422,0,0,1,2.346,1.723.523.523,0,0,0,.718-.048l2.728-3.782a.515.515,0,0,0-.1-.67,17.568,17.568,0,0,0-3.925-2.2A.579.579,0,0,0,60.921,33.125Z" transform="translate(-36.27 -31.593)" fill="#d2d2d2"/>
    <path id="Path_11758" data-name="Path 11758" d="M66.727,43.619A14.07,14.07,0,0,1,68.4,45.725a.471.471,0,0,0,.67.144L73.046,43a.506.506,0,0,0,.1-.67,19.192,19.192,0,0,0-2.968-3.255.489.489,0,0,0-.718.1l-2.824,3.877A.443.443,0,0,0,66.727,43.619Z" transform="translate(-39.922 -34.811)" fill="#d2d2d2"/>
    <path id="Path_11759" data-name="Path 11759" d="M21.745,43.427a13.237,13.237,0,0,1,2.968-2.441.479.479,0,0,0,.144-.67l-.862-1.149a.48.48,0,0,0-.718-.1,19.192,19.192,0,0,0-2.968,3.255.515.515,0,0,0,.1.67l.67.479A.573.573,0,0,0,21.745,43.427Z" transform="translate(-15.762 -34.811)" fill="#d2d2d2"/>
    <path id="Path_11760" data-name="Path 11760" d="M15.355,52.555l.239.1a.446.446,0,0,0,.574-.287,14.151,14.151,0,0,1,2.01-3.4.434.434,0,0,0-.1-.67l-.527-.383a.471.471,0,0,0-.67.144,16.3,16.3,0,0,0-1.819,3.925A.429.429,0,0,0,15.355,52.555Z" transform="translate(-13.057 -39.44)" fill="#d2d2d2"/>
    <path id="Path_11761" data-name="Path 11761" d="M74.768,60.474a21.574,21.574,0,0,1,.431,2.537.472.472,0,0,0,.479.431H80.56a.48.48,0,0,0,.479-.479,17.953,17.953,0,0,0-.622-4.26.454.454,0,0,0-.622-.335L75.1,59.9A.44.44,0,0,0,74.768,60.474Z" transform="translate(-44.181 -44.917)" fill="#d2d2d2"/>
    <path id="Path_11762" data-name="Path 11762" d="M13.341,63.025a.472.472,0,0,0,.479-.431,12.214,12.214,0,0,1,.862-3.638.5.5,0,0,0-.287-.622l-2.345-.766a.486.486,0,0,0-.622.335,20.586,20.586,0,0,0-.527,4.643.429.429,0,0,0,.479.479Z" transform="translate(-10.9 -44.5)" fill="#f5c48f"/>
  </g>
</svg>
