<svg id="Difficulty" xmlns="http://www.w3.org/2000/svg" width="36.222" height="18.87" viewBox="0 0 36.222 18.87">
  <g id="noun_Difficulty_Gauge_1143716" data-name="noun_Difficulty Gauge_1143716">
    <path id="Path_11730" data-name="Path 11730" d="M54.23,52.63,42.776,58.456c-.048.048-.1.145-.193.193A1.221,1.221,0,1,0,44.614,60L54.23,52.63C54.375,52.63,54.279,52.582,54.23,52.63ZM43.55,60.052a.684.684,0,1,1,.774-.58A.723.723,0,0,1,43.55,60.052Z" transform="translate(-28.268 -41.675)"/>
    <path id="Path_11731" data-name="Path 11731" d="M40.041,33.969a.526.526,0,0,0,.484.339,12.672,12.672,0,0,1,1.354-.048,14.521,14.521,0,0,1,2.079.145.51.51,0,0,0,.58-.484V30.584a.485.485,0,0,0-.484-.484,17.177,17.177,0,0,0-4.5.774.484.484,0,0,0-.29.629Z" transform="translate(-26.646 -30.052)" fill="#ec6600"/>
    <path id="Path_11732" data-name="Path 11732" d="M51.38,34.594a17.036,17.036,0,0,1,3,1.064.481.481,0,0,0,.677-.29L56.361,31.4a.5.5,0,0,0-.29-.629,17.53,17.53,0,0,0-4.5-.774.457.457,0,0,0-.484.484v3.627A.429.429,0,0,0,51.38,34.594Z" transform="translate(-32.762 -30)" fill="#ec6600"/>
    <path id="Path_11733" data-name="Path 11733" d="M76.156,47.61l-4.062,2.95a.512.512,0,0,0-.145.629,14.808,14.808,0,0,1,1.064,2.37.45.45,0,0,0,.58.29L78.332,52.3a.484.484,0,0,0,.29-.629,21.226,21.226,0,0,0-1.838-3.966A.451.451,0,0,0,76.156,47.61Z" transform="translate(-43.513 -39.05)" fill="#d2d2d2"/>
    <path id="Path_11734" data-name="Path 11734" d="M30.357,36.868a14.865,14.865,0,0,1,3.482-1.209.484.484,0,0,0,.387-.629L33.5,32.758a.5.5,0,0,0-.629-.29,17.748,17.748,0,0,0-3.966,2.225.511.511,0,0,0-.1.677l.967,1.354A.448.448,0,0,0,30.357,36.868Z" transform="translate(-21.217 -31.259)" fill="#ec6600"/>
    <path id="Path_11735" data-name="Path 11735" d="M2.327.348.017,6.594a.459.459,0,0,0,.193.532A12.9,12.9,0,0,1,2.29,8.673a.529.529,0,0,0,.725-.048L7.126,2.967a.52.52,0,0,0-.1-.677A18.711,18.711,0,0,0,2.955.009.585.585,0,0,0,2.327.348Z" transform="translate(27.479 2.553) rotate(17)" fill="#ec6600"/>
    <path id="Path_11737" data-name="Path 11737" d="M21.961,43.073a13.373,13.373,0,0,1,3-2.466.484.484,0,0,0,.145-.677l-.87-1.161a.485.485,0,0,0-.725-.1,19.389,19.389,0,0,0-3,3.288.52.52,0,0,0,.1.677l.677.484A.467.467,0,0,0,21.961,43.073Z" transform="translate(-16.931 -34.417)" fill="#ec6600"/>
    <path id="Path_11738" data-name="Path 11738" d="M15.529,52.3l.242.1a.45.45,0,0,0,.58-.29,14.3,14.3,0,0,1,2.031-3.434.438.438,0,0,0-.1-.677l-.58-.387a.476.476,0,0,0-.677.145,16.463,16.463,0,0,0-1.838,3.966A.5.5,0,0,0,15.529,52.3Z" transform="translate(-14.223 -39.053)" fill="#ec6600"/>
    <path id="Path_11739" data-name="Path 11739" d="M74.968,60.2a21.8,21.8,0,0,1,.435,2.563.477.477,0,0,0,.484.435H80.82a.485.485,0,0,0,.484-.484,18.138,18.138,0,0,0-.629-4.3.458.458,0,0,0-.629-.339l-4.739,1.548A.444.444,0,0,0,74.968,60.2Z" transform="translate(-45.082 -44.479)" fill="#d2d2d2"/>
    <path id="Path_11740" data-name="Path 11740" d="M14.07,63.194a15.1,15.1,0,0,1,.822-4.449.5.5,0,0,0-.29-.629l-.145-.048a.491.491,0,0,0-.629.339,19.691,19.691,0,0,0-.629,4.788Z" transform="translate(-13.2 -44.479)" fill="#ec6600"/>
    <path id="Path_11763" data-name="Path 11763" d="M59.335,31.429l-1.354,4.159a.459.459,0,0,0,.193.532,13.559,13.559,0,0,1,2.37,1.741.529.529,0,0,0,.725-.048l2.757-3.82a.52.52,0,0,0-.1-.677,17.749,17.749,0,0,0-3.966-2.225A.526.526,0,0,0,59.335,31.429Z" transform="translate(-35.331 -29.902)" fill="#ec6600"/>
  </g>
</svg>
