<svg id="Difficulty" xmlns="http://www.w3.org/2000/svg" width="33.212" height="18.446" viewBox="0 0 33.212 18.446">
  <g id="noun_Difficulty_Gauge_1143710" data-name="noun_Difficulty Gauge_1143710">
    <path id="Path_11719" data-name="Path 11719" d="M43.675,42.058,42.3,52.744v.222a1.133,1.133,0,0,0,2.261-.133l-.8-10.775C43.808,42.014,43.719,42.014,43.675,42.058Zm.089,11.44a.616.616,0,1,1,.222-.842A.6.6,0,0,1,43.763,53.5Z" transform="translate(-29.397 -35.584)"/>
    <path id="Path_11720" data-name="Path 11720" d="M39.928,33.353a.482.482,0,0,0,.443.31,11.685,11.685,0,0,1,1.242-.089,8.293,8.293,0,0,1,1.508.133.468.468,0,0,0,.532-.443V27.943a.444.444,0,0,0-.443-.443,18.554,18.554,0,0,0-4.478.754.444.444,0,0,0-.266.576Z" transform="translate(-27.247 -27.5)" fill="#ffb200"/>
    <path id="Path_11721" data-name="Path 11721" d="M51.355,34.112a15.62,15.62,0,0,1,2.749.976.441.441,0,0,0,.621-.266l1.2-3.636a.461.461,0,0,0-.266-.576,16.074,16.074,0,0,0-4.124-.709.419.419,0,0,0-.443.443v3.326A.348.348,0,0,0,51.355,34.112Z" transform="translate(-34.284 -28.836)" fill="#d2d2d2"/>
    <path id="Path_11722" data-name="Path 11722" d="M75.8,47.579l-3.725,2.7a.47.47,0,0,0-.133.576,13.577,13.577,0,0,1,.976,2.173.413.413,0,0,0,.532.266L77.8,51.88a.444.444,0,0,0,.266-.576,19.463,19.463,0,0,0-1.685-3.636A.379.379,0,0,0,75.8,47.579Z" transform="translate(-45.872 -38.622)" fill="#d2d2d2"/>
    <path id="Path_11723" data-name="Path 11723" d="M30.222,36.5a13.629,13.629,0,0,1,3.193-1.109.443.443,0,0,0,.355-.576L33.1,32.731a.461.461,0,0,0-.576-.266,16.274,16.274,0,0,0-3.636,2.04.469.469,0,0,0-.089.621l.887,1.242A.411.411,0,0,0,30.222,36.5Z" transform="translate(-21.841 -30.248)" fill="#ffb200"/>
    <path id="Path_11724" data-name="Path 11724" d="M61.021,32.776,59.78,36.589a.421.421,0,0,0,.177.488,12.432,12.432,0,0,1,2.173,1.6.485.485,0,0,0,.665-.044l2.527-3.5a.477.477,0,0,0-.089-.621,16.273,16.273,0,0,0-3.636-2.04A.45.45,0,0,0,61.021,32.776Z" transform="translate(-39.117 -30.249)" fill="#d2d2d2"/>
    <path id="Path_11725" data-name="Path 11725" d="M66.925,42.975a13.033,13.033,0,0,1,1.552,1.951.436.436,0,0,0,.621.133l3.68-2.66a.469.469,0,0,0,.089-.621,17.778,17.778,0,0,0-2.749-3.015.453.453,0,0,0-.665.089L66.881,42.4A.415.415,0,0,0,66.925,42.975Z" transform="translate(-43.025 -33.708)" fill="#d2d2d2"/>
    <path id="Path_11726" data-name="Path 11726" d="M21.833,42.7a12.262,12.262,0,0,1,2.749-2.261.444.444,0,0,0,.133-.621l-.8-1.064a.444.444,0,0,0-.665-.089A17.778,17.778,0,0,0,20.5,41.678a.477.477,0,0,0,.089.621l.621.443A.425.425,0,0,0,21.833,42.7Z" transform="translate(-17.222 -33.652)" fill="#ffb200"/>
    <path id="Path_11727" data-name="Path 11727" d="M15.5,51.907l.222.089a.413.413,0,0,0,.532-.266,13.108,13.108,0,0,1,1.862-3.148.4.4,0,0,0-.089-.621l-.532-.355a.436.436,0,0,0-.621.133,15.1,15.1,0,0,0-1.685,3.636A.482.482,0,0,0,15.5,51.907Z" transform="translate(-14.303 -38.649)" fill="#ffb200"/>
    <path id="Path_11728" data-name="Path 11728" d="M74.986,60.017a19.981,19.981,0,0,1,.4,2.35.437.437,0,0,0,.443.4h4.523a.444.444,0,0,0,.443-.443,16.63,16.63,0,0,0-.576-3.946.42.42,0,0,0-.576-.31L75.3,59.485A.44.44,0,0,0,74.986,60.017Z" transform="translate(-47.583 -44.497)" fill="#d2d2d2"/>
    <path id="Path_11729" data-name="Path 11729" d="M14,62.766a13.846,13.846,0,0,1,.754-4.079.461.461,0,0,0-.266-.576l-.133-.044a.45.45,0,0,0-.576.31,18.055,18.055,0,0,0-.576,4.39Z" transform="translate(-13.2 -44.497)" fill="#ffb200"/>
  </g>
</svg>
