<svg xmlns="http://www.w3.org/2000/svg" width="81" height="72.697" viewBox="0 0 81 72.697">
  <g id="undraw_Add_files_re_v09g" transform="translate(-0.006 -0.006)">
    <path id="Path_11685" data-name="Path 11685" d="M250.466,99.224l-2.636.68-32.471,8.374-2.636.68a4.99,4.99,0,0,0-3.582,6.071l11.429,44.318a4.99,4.99,0,0,0,6.071,3.582l.007,0,37.729-9.73.007,0a4.99,4.99,0,0,0,3.582-6.071l-11.429-44.318A4.99,4.99,0,0,0,250.466,99.224Z" transform="translate(-208.978 -99.06)" fill="#f2f2f2"/>
    <path id="Path_11686" data-name="Path 11686" d="M263.243,113.032l-3.122.805-31.5,8.123-3.122.805a3.554,3.554,0,0,0-2.551,4.324l11.429,44.318a3.554,3.554,0,0,0,4.324,2.551l.007,0,37.729-9.73.007,0A3.554,3.554,0,0,0,279,159.9l-11.429-44.318A3.554,3.554,0,0,0,263.243,113.032Z" transform="translate(-221.397 -111.479)" fill="#fff"/>
    <path id="Path_11687" data-name="Path 11687" d="M416.023,238.421l-19.086,4.922a.83.83,0,1,1-.415-1.608l19.086-4.922a.83.83,0,1,1,.415,1.608Z" transform="translate(-376.534 -222.517)" fill="#f2f2f2"/>
    <path id="Path_11688" data-name="Path 11688" d="M426.093,256.357l-22.4,5.777a.83.83,0,1,1-.415-1.608l22.4-5.777a.83.83,0,1,1,.415,1.608Z" transform="translate(-382.588 -238.595)" fill="#f2f2f2"/>
    <path id="Path_11689" data-name="Path 11689" d="M446.292,355.795l-19.086,4.922a.83.83,0,0,1-.415-1.608l19.086-4.922a.83.83,0,1,1,.415,1.608Z" transform="translate(-403.667 -327.733)" fill="#f2f2f2"/>
    <path id="Path_11690" data-name="Path 11690" d="M456.361,373.73l-22.4,5.777a.83.83,0,0,1-.415-1.608l22.4-5.777a.83.83,0,1,1,.415,1.608Z" transform="translate(-409.722 -343.811)" fill="#f2f2f2"/>
    <path id="Path_11691" data-name="Path 11691" d="M476.56,473.168l-19.086,4.922a.83.83,0,1,1-.415-1.608l19.086-4.922a.83.83,0,0,1,.415,1.608Z" transform="translate(-430.8 -432.95)" fill="#f2f2f2"/>
    <path id="Path_11692" data-name="Path 11692" d="M486.63,491.1l-22.4,5.777a.83.83,0,1,1-.415-1.608l22.4-5.777a.83.83,0,0,1,.415,1.608Z" transform="translate(-436.855 -449.028)" fill="#f2f2f2"/>
    <path id="Path_11693" data-name="Path 11693" d="M298.277,289.993l-6.754,1.742a.4.4,0,0,1-.485-.286l-1.55-6.012a.4.4,0,0,1,.286-.485l6.754-1.742a.4.4,0,0,1,.485.286l1.55,6.012A.4.4,0,0,1,298.277,289.993Z" transform="translate(-281.132 -264.119)" fill="#e6e6e6"/>
    <path id="Path_11694" data-name="Path 11694" d="M328.545,407.366l-6.754,1.742a.4.4,0,0,1-.485-.286l-1.551-6.012a.4.4,0,0,1,.286-.485l6.754-1.742a.4.4,0,0,1,.485.286l1.55,6.012A.4.4,0,0,1,328.545,407.366Z" transform="translate(-308.265 -369.336)" fill="#e6e6e6"/>
    <path id="Path_11695" data-name="Path 11695" d="M358.813,524.74l-6.754,1.742a.4.4,0,0,1-.485-.286l-1.55-6.012a.4.4,0,0,1,.286-.485l6.754-1.742a.4.4,0,0,1,.485.286l1.55,6.012A.4.4,0,0,1,358.813,524.74Z" transform="translate(-335.398 -474.552)" fill="#e6e6e6"/>
    <path id="Path_11696" data-name="Path 11696" d="M483.155,209.052H444.178a4.99,4.99,0,0,0-4.985,4.985V259.8a4.99,4.99,0,0,0,4.985,4.985h38.977a4.99,4.99,0,0,0,4.985-4.985V214.036A4.99,4.99,0,0,0,483.155,209.052Z" transform="translate(-415.343 -197.654)" fill="#e6e6e6"/>
    <path id="Path_11697" data-name="Path 11697" d="M495.574,222.906H456.6a3.554,3.554,0,0,0-3.55,3.55v45.767a3.554,3.554,0,0,0,3.55,3.55h38.977a3.554,3.554,0,0,0,3.55-3.55V226.456A3.554,3.554,0,0,0,495.574,222.906Z" transform="translate(-427.762 -210.073)" fill="#fff"/>
    <circle id="Ellipse_934" data-name="Ellipse 934" cx="9.099" cy="9.099" r="9.099" transform="translate(62.808 54.505)" fill="#ff7901"/>
    <path id="Path_11698" data-name="Path 11698" d="M859.588,663.967h-3.165V660.8a1.187,1.187,0,0,0-2.374,0v3.165h-3.165a1.187,1.187,0,1,0,0,2.374h3.165v3.165a1.187,1.187,0,0,0,2.374,0v-3.165h3.165a1.187,1.187,0,1,0,0-2.374Z" transform="translate(-783.33 -601.55)" fill="#fff"/>
    <path id="Path_11699" data-name="Path 11699" d="M629.226,451.347H609.515a.83.83,0,0,1,0-1.66h19.711a.83.83,0,0,1,0,1.66Z" transform="translate(-567.28 -413.366)" fill="#e6e6e6"/>
    <path id="Path_11700" data-name="Path 11700" d="M632.65,478.4H609.515a.83.83,0,1,1,0-1.66H632.65a.83.83,0,1,1,0,1.66Z" transform="translate(-567.28 -437.612)" fill="#e6e6e6"/>
    <path id="Path_11701" data-name="Path 11701" d="M629.225,572.561H609.515a.83.83,0,0,1,0-1.66h19.711a.83.83,0,0,1,0,1.66Z" transform="translate(-567.28 -522.024)" fill="#e6e6e6"/>
    <path id="Path_11702" data-name="Path 11702" d="M632.65,599.609H609.515a.83.83,0,0,1,0-1.66H632.65a.83.83,0,0,1,0,1.66Z" transform="translate(-567.28 -546.271)" fill="#e6e6e6"/>
    <path id="Path_11703" data-name="Path 11703" d="M510.255,444.414H503.28a.4.4,0,0,1-.4-.4v-6.209a.4.4,0,0,1,.4-.4h6.975a.4.4,0,0,1,.4.4v6.209A.4.4,0,0,1,510.255,444.414Z" transform="translate(-472.435 -402.359)" fill="#e6e6e6"/>
    <path id="Path_11704" data-name="Path 11704" d="M510.255,565.627H503.28a.4.4,0,0,1-.4-.4V559.02a.4.4,0,0,1,.4-.4h6.975a.4.4,0,0,1,.4.4v6.209A.4.4,0,0,1,510.255,565.627Z" transform="translate(-472.435 -511.018)" fill="#e6e6e6"/>
    <path id="Path_11705" data-name="Path 11705" d="M674.258,316.413H659.726a.83.83,0,0,1,0-1.66h14.532a.83.83,0,0,1,0,1.66Z" transform="translate(-612.29 -292.407)" fill="#ccc"/>
    <path id="Path_11706" data-name="Path 11706" d="M677.682,343.46H659.726a.83.83,0,0,1,0-1.66h17.956a.83.83,0,0,1,0,1.66Z" transform="translate(-612.29 -316.653)" fill="#ccc"/>
    <path id="Path_11707" data-name="Path 11707" d="M516.466,293.226h-13.4a.4.4,0,0,1-.4-.4V282.372a.4.4,0,0,1,.4-.4h13.4a.4.4,0,0,1,.4.4v10.456A.4.4,0,0,1,516.466,293.226Z" transform="translate(-472.246 -263.024)" fill="#ff7901"/>
  </g>
</svg>
